<?xml version="1.0" encoding="UTF-8"?>
<svg version="1.1" xmlns="http://www.w3.org/2000/svg" width="512" height="512">
<path d="M0 0 C30.39180239 26.79840192 51.83140257 65.13327909 54.51416016 106.04833984 C57.96004032 194.54762153 11.79531638 274.56839504 -46.48583984 338.04833984 C-46.9948584 338.60779297 -47.50387695 339.16724609 -48.02832031 339.74365234 C-56.13285842 348.6408971 -64.48180604 357.06382691 -73.48583984 365.04833984 C-74.06946289 365.57137695 -74.65308594 366.09441406 -75.25439453 366.63330078 C-82.34198189 372.97442542 -89.59855601 379.08996711 -97.11083984 384.92333984 C-97.7738208 385.45378906 -98.43680176 385.98423828 -99.11987305 386.53076172 C-103.67987664 389.99503204 -103.67987664 389.99503204 -106.96630859 390.21240234 C-110.74559698 388.46631252 -113.89239019 386.09239378 -117.17333984 383.54833984 C-117.88232422 383.00733643 -118.59130859 382.46633301 -119.32177734 381.90893555 C-124.96726228 377.55592217 -130.27261532 372.90893309 -135.48583984 368.04833984 C-136.71065017 366.98082095 -137.93975067 365.91820199 -139.17333984 364.86083984 C-149.74124163 355.61659444 -159.8023084 345.99082694 -169.16308594 335.52392578 C-170.4030809 334.14066082 -171.65688377 332.7698088 -172.91162109 331.39990234 C-193.46058021 308.89896956 -211.46592613 283.55091197 -226.48583984 257.04833984 C-227.21818848 255.75984131 -227.21818848 255.75984131 -227.96533203 254.4453125 C-239.61015133 233.81380743 -249.28613592 212.632254 -256.48583984 190.04833984 C-256.75380371 189.21125488 -257.02176758 188.37416992 -257.29785156 187.51171875 C-261.58626491 173.89594167 -264.45642743 160.174372 -266.48583984 146.04833984 C-266.59041504 145.33258789 -266.69499023 144.61683594 -266.80273438 143.87939453 C-272.09750438 102.90412611 -262.62731823 59.71909521 -237.49511719 26.63452148 C-212.67155234 -5.17203912 -180.81808569 -26.38058079 -141.48583984 -35.95166016 C-140.78152832 -36.13100098 -140.0772168 -36.3103418 -139.3515625 -36.49511719 C-90.96447026 -48.3765612 -37.00924239 -31.91612446 0 0 Z M-169.48583984 64.04833984 C-170.29923828 64.85142578 -171.11263672 65.65451172 -171.95068359 66.48193359 C-187.51675405 82.68661206 -195.06584912 105.1117157 -194.8371582 127.35131836 C-194.07300531 152.24885751 -183.27052205 174.01478182 -165.48583984 191.04833984 C-145.57891117 208.54314763 -121.55072796 214.677111 -95.48583984 213.04833984 C-79.38566922 211.16258832 -63.90272299 204.36686599 -51.48583984 194.04833984 C-50.62345703 193.33677734 -49.76107422 192.62521484 -48.87255859 191.89208984 C-32.02107911 177.36759767 -20.2373245 156.46186999 -18.48583984 134.04833984 C-17.3546237 117.26724744 -19.91425283 101.19151387 -27.48583984 86.04833984 C-27.97697266 85.06607422 -28.46810547 84.08380859 -28.97412109 83.07177734 C-33.38872061 74.91688468 -38.99028944 68.5619837 -45.48583984 62.04833984 C-46.26701172 61.24396484 -47.04818359 60.43958984 -47.85302734 59.61083984 C-63.5605752 44.37927829 -85.23501847 37.37161345 -106.79833984 36.73583984 C-131.03777593 37.20310608 -152.61427544 46.9847804 -169.48583984 64.04833984 Z " fill="#7DD63D" transform="translate(362.48583984375,38.95166015625)"/>
<path d="M0 0 C2.60546875 2.1875 2.60546875 2.1875 5.1875 5 C6.15092917 6.01554642 7.11847164 7.0272046 8.08984375 8.03515625 C8.57565918 8.53934082 9.06147461 9.04352539 9.56201172 9.56298828 C13.39554468 13.39391782 17.75767277 16.64149094 22 20 C23.1681671 20.9565038 24.33475456 21.91493909 25.5 22.875 C40.9825476 36.89765 40.9825476 36.89765 59.60546875 43.46484375 C64.75442935 42.46529022 68.83210888 39.02714656 73 36 C73.99644531 35.278125 74.99289062 34.55625 76.01953125 33.8125 C96.42720271 18.90249943 96.42720271 18.90249943 114.375 1.20703125 C116.93918742 -0.69761758 118.80769125 -0.86297515 122 -1 C125.07315754 -0.32667193 127.94539565 0.73873351 130.875 1.875 C131.70781494 2.19307617 132.54062988 2.51115234 133.39868164 2.83886719 C149.9633261 9.37584228 166.39150643 18.66768018 175 35 C177.2421134 41.72634019 177.07761938 49.62483981 174.1875 56.125 C162.25447231 76.6338526 137.13989669 85.9151325 115.45092773 91.92895508 C83.60912679 100.20934888 46.30706677 101.98770699 14 95 C13.17322754 94.82839355 12.34645508 94.65678711 11.49462891 94.47998047 C-11.14975782 89.66358268 -34.56318191 82.03167436 -51 65 C-51.60457031 64.38125 -52.20914063 63.7625 -52.83203125 63.125 C-59.03906005 56.35918758 -60.66992602 50.39962849 -60.3984375 41.2734375 C-59.16558712 31.14472555 -52.51514776 24.38139702 -45 18 C-34.68899551 10.25083459 -13.23005312 -3.99495722 0 0 Z " fill="#7DD63D" transform="translate(198,414)"/>
<path d="M0 0 C12.22306479 10.09044606 19.89998384 24.3276572 22 40 C23.24708913 59.76942931 18.52041676 76.1383221 5.47265625 91.4296875 C-5.02015977 102.33691173 -19.65220784 109.69472749 -34.8671875 110.30078125 C-52.68421327 110.51163363 -68.737739 106.51092257 -82.5625 94.625 C-95.32598016 82.11850266 -102.19182473 65.85958836 -102.375 48 C-102.15775009 30.76552349 -95.95785255 15.77101506 -83.82421875 3.625 C-59.64977944 -18.84418841 -26.15264436 -19.03730841 0 0 Z " fill="#7DD63D" transform="translate(296,116)"/>
</svg>